# xmcd
#
# Track frame offsets:
# 150
# 5852
# 17755
# 31452
# 45682
# 59487
# 77679
# 92335
# 105555
# 120087
# 137312
# 150602
# 166870
# 180197
# 193684
# 206940
# 223384
# 237295
# 253935
# 266190
# 281417
# 293560
# 309292
# 327210
# 344177
#
# Disc length: 4677 seconds
#
#
# Revision: 0
# Processed by: cddbd v1.5.1PL0 Copyright (c) Steve Scherf et al.
# Submitted via: FreeRIP 2.90 
#
DISCID=65124319
DTITLE=Various Artist - Top 100 R&B CD3
DYEAR=1900
DGENRE=R&B
TTITLE0=Block Bounce - Booty Flow
TTITLE1=When I die (Spanish Version) - Los Mambos
TTITLE2=Love II Love - Damage
TTITLE3=Close To You - Dal Scorcio feat. Ivanildo Kembel
TTITLE4=Sugar Honey Ice Tea - Bad Guyz
TTITLE5=Hypnotize - Biggy Boogie
TTITLE6=Been Around The World - Faithful Eddy
TTITLE7=Game Over - DJ Montana
TTITLE8=Not Tonight - Big Mell
TTITLE9=Drive (Radio Edit) - Geoffrey Williams
TTITLE10=The Way U Love Me - Farida Feat. Complex
TTITLE11=I Miss You - Haddaway
TTITLE12=An Imitaion Of Love - Millie Jackson
TTITLE13=Come With Me - Mike Stevens and Juliet Roberts
TTITLE14=I Care 'Bout You - Rythm Status
TTITLE15=Last Christmas - Soul Made Feat. Lynn and Burney
TTITLE16=Out To Get Minez - Step X Step
TTITLE17=187 UM - Snoop Doggy Dogg and Dr. Dre
TTITLE18=I'd Rather Go Blind - Ruby Turner
TTITLE19=The Rain (Supa Dupa Fly) - She La
TTITLE20=Mirror Mirror - Smooth B
TTITLE21=Diggin' - Tyra
TTITLE22=Moving Up (On The Right Side) - Beverly Knight
TTITLE23=4 Seasons Of Loneliness - TIME 2 Grow
TTITLE24=Smooth Touch - Da-Mike
EXTD=
EXTT0=
EXTT1=
EXTT2=
EXTT3=
EXTT4=
EXTT5=
EXTT6=
EXTT7=
EXTT8=
EXTT9=
EXTT10=
EXTT11=
EXTT12=
EXTT13=
EXTT14=
EXTT15=
EXTT16=
EXTT17=
EXTT18=
EXTT19=
EXTT20=
EXTT21=
EXTT22=
EXTT23=
EXTT24=
PLAYORDER=
